{
	"asset":{
		"generator":"Khronos glTF Blender I/O v4.0.43",
		"version":"2.0"
	},
	"extensionsUsed":[
		"KHR_materials_unlit"
	],
	"scene":0,
	"scenes":[
		{
			"name":"Scene",
			"nodes":[
				0
			]
		}
	],
	"nodes":[
		{
			"mesh":0,
			"name":"Dragon",
			"rotation":[
				0.70710688829422,
				0,
				0,
				0.7071066498756409
			],
			"scale":[
				0.25,
				0.2500000298023224,
				0.2500000298023224
			],
			"translation":[
				0,
				-0.7306479811668396,
				0
			]
		}
	],
	"materials":[
		{
			"extensions":{
				"KHR_materials_unlit":{}
			},
			"name":"Thickness.001",
			"pbrMetallicRoughness":{
				"baseColorTexture":{
					"index":0
				},
				"metallicFactor":0,
				"roughnessFactor":0.9
			}
		}
	],
	"meshes":[
		{
			"name":"Dragon.001",
			"primitives":[
				{
					"attributes":{
						"POSITION":0,
						"NORMAL":1,
						"TEXCOORD_0":2
					},
					"indices":3,
					"material":0
				}
			]
		}
	],
	"textures":[
		{
			"sampler":0,
			"source":0
		}
	],
	"images":[
		{
			"mimeType":"image/png",
			"name":"Dragon_ThicknessMap",
			"uri":"Dragon_ThicknessMap.png"
		}
	],
	"accessors":[
		{
			"bufferView":0,
			"componentType":5126,
			"count":76809,
			"max":[
				7.0467000007629395,
				3.1512999534606934,
				0
			],
			"min":[
				-7.0467000007629395,
				-3.1512999534606934,
				-9.939900398254395
			],
			"type":"VEC3"
		},
		{
			"bufferView":1,
			"componentType":5126,
			"count":76809,
			"type":"VEC3"
		},
		{
			"bufferView":2,
			"componentType":5126,
			"count":76809,
			"type":"VEC2"
		},
		{
			"bufferView":3,
			"componentType":5125,
			"count":273648,
			"type":"SCALAR"
		}
	],
	"bufferViews":[
		{
			"buffer":0,
			"byteLength":921708,
			"byteOffset":0,
			"target":34962
		},
		{
			"buffer":0,
			"byteLength":921708,
			"byteOffset":921708,
			"target":34962
		},
		{
			"buffer":0,
			"byteLength":614472,
			"byteOffset":1843416,
			"target":34962
		},
		{
			"buffer":0,
			"byteLength":1094592,
			"byteOffset":2457888,
			"target":34963
		}
	],
	"samplers":[
		{
			"magFilter":9729,
			"minFilter":9987
		}
	],
	"buffers":[
		{
			"byteLength":3552480,
			"uri":"Dragon_Attenuation.bin"
		}
	]
}
