{
	"asset":{
		"generator":"Khronos glTF Blender I/O v4.0.43",
		"version":"2.0"
	},
	"extensionsUsed":[
		"KHR_materials_unlit"
	],
	"scene":0,
	"scenes":[
		{
			"name":"Scene",
			"nodes":[
				2
			]
		}
	],
	"nodes":[
		{
			"mesh":0,
			"name":"Object_2"
		},
		{
			"children":[
				0
			],
			"name":"saulgoodman.obj.cleaner.materialmerger.gles"
		},
		{
			"children":[
				1
			],
			"name":"Sketchfab_model"
		}
	],
	"materials":[
		{
			"doubleSided":true,
			"extensions":{
				"KHR_materials_unlit":{}
			},
			"name":"Material__20.001",
			"pbrMetallicRoughness":{
				"baseColorTexture":{
					"index":0
				},
				"metallicFactor":0,
				"roughnessFactor":0.9
			}
		}
	],
	"meshes":[
		{
			"name":"Object_0",
			"primitives":[
				{
					"attributes":{
						"POSITION":0,
						"NORMAL":1,
						"TEXCOORD_0":2
					},
					"indices":3,
					"material":0
				}
			]
		}
	],
	"textures":[
		{
			"sampler":0,
			"source":0
		}
	],
	"images":[
		{
			"mimeType":"image/png",
			"name":"Material__20_baseColor",
			"uri":"Material__20_baseColor.png"
		}
	],
	"accessors":[
		{
			"bufferView":0,
			"componentType":5126,
			"count":1693,
			"max":[
				0.47895997762680054,
				1.8538439273834229,
				0.47505757212638855
			],
			"min":[
				-0.34878501296043396,
				0.001450955169275403,
				-0.20791703462600708
			],
			"type":"VEC3"
		},
		{
			"bufferView":1,
			"componentType":5126,
			"count":1693,
			"type":"VEC3"
		},
		{
			"bufferView":2,
			"componentType":5126,
			"count":1693,
			"type":"VEC2"
		},
		{
			"bufferView":3,
			"componentType":5123,
			"count":6327,
			"type":"SCALAR"
		}
	],
	"bufferViews":[
		{
			"buffer":0,
			"byteLength":20316,
			"byteOffset":0,
			"target":34962
		},
		{
			"buffer":0,
			"byteLength":20316,
			"byteOffset":20316,
			"target":34962
		},
		{
			"buffer":0,
			"byteLength":13544,
			"byteOffset":40632,
			"target":34962
		},
		{
			"buffer":0,
			"byteLength":12654,
			"byteOffset":54176,
			"target":34963
		}
	],
	"samplers":[
		{
			"magFilter":9729,
			"minFilter":9987
		}
	],
	"buffers":[
		{
			"byteLength":66832,
			"uri":"saul.bin"
		}
	]
}
