{
	"asset":{
		"generator":"Khronos glTF Blender I/O v4.0.43",
		"version":"2.0"
	},
	"scene":0,
	"scenes":[
		{
			"name":"Scene",
			"nodes":[
				10,
				11
			]
		}
	],
	"nodes":[
		{
			"mesh":0,
			"name":"cajas_metanfetamina_blue_0"
		},
		{
			"mesh":1,
			"name":"cajas_metanfetamina_metanfetamina_0"
		},
		{
			"mesh":2,
			"name":"cajas_metanfetamina_metanfetamina_2_0"
		},
		{
			"children":[
				0,
				1,
				2
			],
			"name":"cajas_metanfetamina"
		},
		{
			"mesh":3,
			"name":"chair_Metalness_0"
		},
		{
			"mesh":4,
			"name":"chair_wood_0"
		},
		{
			"children":[
				4,
				5
			],
			"name":"chair"
		},
		{
			"mesh":5,
			"name":"Waltuh"
		},
		{
			"children":[
				3,
				6,
				7
			],
			"name":"RootNode"
		},
		{
			"children":[
				8
			],
			"name":"BreakingBad_scene.fbx"
		},
		{
			"children":[
				9
			],
			"name":"Sketchfab_model"
		},
		{
			"mesh":6,
			"name":"Money"
		}
	],
	"materials":[
		{
			"doubleSided":true,
			"name":"Material.001",
			"pbrMetallicRoughness":{
				"baseColorTexture":{
					"index":0
				},
				"metallicFactor":0,
				"roughnessFactor":0.5
			}
		}
	],
	"meshes":[
		{
			"name":"cajas_metanfetamina_blue_0.001",
			"primitives":[
				{
					"attributes":{
						"POSITION":0,
						"NORMAL":1,
						"TEXCOORD_0":2
					},
					"indices":3,
					"material":0
				}
			]
		},
		{
			"name":"cajas_metanfetamina_metanfetamina_0.001",
			"primitives":[
				{
					"attributes":{
						"POSITION":4,
						"NORMAL":5,
						"TEXCOORD_0":6
					},
					"indices":7,
					"material":0
				}
			]
		},
		{
			"name":"cajas_metanfetamina_metanfetamina_2_0.001",
			"primitives":[
				{
					"attributes":{
						"POSITION":8,
						"NORMAL":9,
						"TEXCOORD_0":10
					},
					"indices":11,
					"material":0
				}
			]
		},
		{
			"name":"chair_Metalness_0.001",
			"primitives":[
				{
					"attributes":{
						"POSITION":12,
						"NORMAL":13,
						"TEXCOORD_0":14
					},
					"indices":15,
					"material":0
				}
			]
		},
		{
			"name":"chair_wood_0.001",
			"primitives":[
				{
					"attributes":{
						"POSITION":16,
						"NORMAL":17,
						"TEXCOORD_0":18
					},
					"indices":19,
					"material":0
				}
			]
		},
		{
			"name":"0.001",
			"primitives":[
				{
					"attributes":{
						"POSITION":20,
						"NORMAL":21,
						"TEXCOORD_0":22
					},
					"indices":23,
					"material":0
				}
			]
		},
		{
			"name":"singledollar.016_money_0.001",
			"primitives":[
				{
					"attributes":{
						"POSITION":24,
						"NORMAL":25,
						"TEXCOORD_0":26
					},
					"indices":27,
					"material":0
				}
			]
		}
	],
	"textures":[
		{
			"sampler":0,
			"source":0
		}
	],
	"images":[
		{
			"mimeType":"image/png",
			"name":"Waltuh",
			"uri":"Waltuh.png"
		}
	],
	"accessors":[
		{
			"bufferView":0,
			"componentType":5126,
			"count":576,
			"max":[
				1.081950306892395,
				0.8090831637382507,
				0.18324336409568787
			],
			"min":[
				-1.0819499492645264,
				0.18418464064598083,
				-0.4256872832775116
			],
			"type":"VEC3"
		},
		{
			"bufferView":1,
			"componentType":5126,
			"count":576,
			"type":"VEC3"
		},
		{
			"bufferView":2,
			"componentType":5126,
			"count":576,
			"type":"VEC2"
		},
		{
			"bufferView":3,
			"componentType":5123,
			"count":864,
			"type":"SCALAR"
		},
		{
			"bufferView":4,
			"componentType":5126,
			"count":578,
			"max":[
				1.0631983280181885,
				0.7501862049102783,
				0.16173988580703735
			],
			"min":[
				-1.0631979703903198,
				0.011012136936187744,
				-0.4041837751865387
			],
			"type":"VEC3"
		},
		{
			"bufferView":5,
			"componentType":5126,
			"count":578,
			"type":"VEC3"
		},
		{
			"bufferView":6,
			"componentType":5126,
			"count":578,
			"type":"VEC2"
		},
		{
			"bufferView":7,
			"componentType":5123,
			"count":864,
			"type":"SCALAR"
		},
		{
			"bufferView":8,
			"componentType":5126,
			"count":5832,
			"max":[
				1.0446851253509521,
				0.7678380608558655,
				0.14106296002864838
			],
			"min":[
				-1.044684886932373,
				0.0574837327003479,
				-0.3309512436389923
			],
			"type":"VEC3"
		},
		{
			"bufferView":9,
			"componentType":5126,
			"count":5832,
			"type":"VEC3"
		},
		{
			"bufferView":10,
			"componentType":5126,
			"count":5832,
			"type":"VEC2"
		},
		{
			"bufferView":11,
			"componentType":5123,
			"count":8640,
			"type":"SCALAR"
		},
		{
			"bufferView":12,
			"componentType":5126,
			"count":320,
			"max":[
				0.19803953170776367,
				0.3844614624977112,
				0.6557072401046753
			],
			"min":[
				-0.19803953170776367,
				-0.0010222569108009338,
				0.34528815746307373
			],
			"type":"VEC3"
		},
		{
			"bufferView":13,
			"componentType":5126,
			"count":320,
			"type":"VEC3"
		},
		{
			"bufferView":14,
			"componentType":5126,
			"count":320,
			"type":"VEC2"
		},
		{
			"bufferView":15,
			"componentType":5123,
			"count":480,
			"type":"SCALAR"
		},
		{
			"bufferView":16,
			"componentType":5126,
			"count":96,
			"max":[
				0.1991615742444992,
				0.53432697057724,
				0.6215378642082214
			],
			"min":[
				-0.1991616189479828,
				0.1872868537902832,
				0.31276735663414
			],
			"type":"VEC3"
		},
		{
			"bufferView":17,
			"componentType":5126,
			"count":96,
			"type":"VEC3"
		},
		{
			"bufferView":18,
			"componentType":5126,
			"count":96,
			"type":"VEC2"
		},
		{
			"bufferView":19,
			"componentType":5123,
			"count":144,
			"type":"SCALAR"
		},
		{
			"bufferView":20,
			"componentType":5126,
			"count":2488,
			"max":[
				0.22089716792106628,
				0.9461273550987244,
				0.998799204826355
			],
			"min":[
				-0.24562323093414307,
				-0.007385287433862686,
				0.27965056896209717
			],
			"type":"VEC3"
		},
		{
			"bufferView":21,
			"componentType":5126,
			"count":2488,
			"type":"VEC3"
		},
		{
			"bufferView":22,
			"componentType":5126,
			"count":2488,
			"type":"VEC2"
		},
		{
			"bufferView":23,
			"componentType":5123,
			"count":3060,
			"type":"SCALAR"
		},
		{
			"bufferView":24,
			"componentType":5126,
			"count":10672,
			"max":[
				0.7815934419631958,
				0.3787045180797577,
				1.7045886516571045
			],
			"min":[
				-0.9328784942626953,
				-0.00011605126201175153,
				0.3303409218788147
			],
			"type":"VEC3"
		},
		{
			"bufferView":25,
			"componentType":5126,
			"count":10672,
			"type":"VEC3"
		},
		{
			"bufferView":26,
			"componentType":5126,
			"count":10672,
			"type":"VEC2"
		},
		{
			"bufferView":27,
			"componentType":5123,
			"count":15720,
			"type":"SCALAR"
		}
	],
	"bufferViews":[
		{
			"buffer":0,
			"byteLength":6912,
			"byteOffset":0,
			"target":34962
		},
		{
			"buffer":0,
			"byteLength":6912,
			"byteOffset":6912,
			"target":34962
		},
		{
			"buffer":0,
			"byteLength":4608,
			"byteOffset":13824,
			"target":34962
		},
		{
			"buffer":0,
			"byteLength":1728,
			"byteOffset":18432,
			"target":34963
		},
		{
			"buffer":0,
			"byteLength":6936,
			"byteOffset":20160,
			"target":34962
		},
		{
			"buffer":0,
			"byteLength":6936,
			"byteOffset":27096,
			"target":34962
		},
		{
			"buffer":0,
			"byteLength":4624,
			"byteOffset":34032,
			"target":34962
		},
		{
			"buffer":0,
			"byteLength":1728,
			"byteOffset":38656,
			"target":34963
		},
		{
			"buffer":0,
			"byteLength":69984,
			"byteOffset":40384,
			"target":34962
		},
		{
			"buffer":0,
			"byteLength":69984,
			"byteOffset":110368,
			"target":34962
		},
		{
			"buffer":0,
			"byteLength":46656,
			"byteOffset":180352,
			"target":34962
		},
		{
			"buffer":0,
			"byteLength":17280,
			"byteOffset":227008,
			"target":34963
		},
		{
			"buffer":0,
			"byteLength":3840,
			"byteOffset":244288,
			"target":34962
		},
		{
			"buffer":0,
			"byteLength":3840,
			"byteOffset":248128,
			"target":34962
		},
		{
			"buffer":0,
			"byteLength":2560,
			"byteOffset":251968,
			"target":34962
		},
		{
			"buffer":0,
			"byteLength":960,
			"byteOffset":254528,
			"target":34963
		},
		{
			"buffer":0,
			"byteLength":1152,
			"byteOffset":255488,
			"target":34962
		},
		{
			"buffer":0,
			"byteLength":1152,
			"byteOffset":256640,
			"target":34962
		},
		{
			"buffer":0,
			"byteLength":768,
			"byteOffset":257792,
			"target":34962
		},
		{
			"buffer":0,
			"byteLength":288,
			"byteOffset":258560,
			"target":34963
		},
		{
			"buffer":0,
			"byteLength":29856,
			"byteOffset":258848,
			"target":34962
		},
		{
			"buffer":0,
			"byteLength":29856,
			"byteOffset":288704,
			"target":34962
		},
		{
			"buffer":0,
			"byteLength":19904,
			"byteOffset":318560,
			"target":34962
		},
		{
			"buffer":0,
			"byteLength":6120,
			"byteOffset":338464,
			"target":34963
		},
		{
			"buffer":0,
			"byteLength":128064,
			"byteOffset":344584,
			"target":34962
		},
		{
			"buffer":0,
			"byteLength":128064,
			"byteOffset":472648,
			"target":34962
		},
		{
			"buffer":0,
			"byteLength":85376,
			"byteOffset":600712,
			"target":34962
		},
		{
			"buffer":0,
			"byteLength":31440,
			"byteOffset":686088,
			"target":34963
		}
	],
	"samplers":[
		{
			"magFilter":9729,
			"minFilter":9987
		}
	],
	"buffers":[
		{
			"byteLength":717528,
			"uri":"waltuh.bin"
		}
	]
}
